<?xml version="1.0" encoding="UTF-8"?><svg id="Layer_2" xmlns="http://www.w3.org/2000/svg" viewBox="0 0 657.48 154.81"><defs><style>.cls-1{stroke:#181716;stroke-linejoin:round;stroke-width:.71px;}.cls-1,.cls-2,.cls-3{fill:#181716;}.cls-2{fill-rule:evenodd;}</style></defs><g id="Layer_1-2"><g><g><path class="cls-3" d="M218.78,42.91l18.77,43.89c.96,2.25,2.39,4.44,3.82,4.5l2.46,.07v2.12c-1.43-.07-7.03-.2-9.42-.2-2.18,0-7.58,.07-9.62,.2v-2.12l3.48-.2c1.5-.07,2.94-.61,2.94-1.43,0-1.02-.75-2.59-4.78-12.69h-20.41c-3.89,9.49-4.5,10.99-4.5,12.15,0,1.43,1.5,2.05,3.69,2.12l2.32,.07v2.12c-1.5-.07-6.01-.2-8.12-.2-2.8,0-7.3,.14-8.19,.2v-2.12l2.66-.2c1.71-.14,3-1.64,3.82-3.48l19.52-44.77h1.57Zm6.35,31.19l-8.94-21.09-9.01,21.09h17.95Z"/><path class="cls-3" d="M257.42,91.37c5.8,0,6.14-.61,6.14-5.8V51.71c0-4.85-.48-5.46-6.14-5.46v-2.12c3.21,0,2.87,.2,9.62,.2s4.91-.2,9.42-.2v2.12c-5.67,0-6.14,.61-6.14,5.46v38.22c2.05,.48,4.03,.55,5.94,.55,8.53,0,12.83-.34,13.1-.82,.55-.48,1.57-1.77,2.32-7.85h2.46c-.75,3.75-1.16,8.05-1.16,11.67-1.57-.14-9.49-.2-11.88-.2h-14.74c-2.46,0-7.1,.14-8.94,.2v-2.12Z"/><path class="cls-3" d="M323.22,85.56c0,5.12,.27,5.8,6.14,5.8v2.12c-.82-.07-6.69-.2-9.42-.2-3.48,0-8.87,.07-9.62,.2v-2.12c5.87,0,6.14-.68,6.14-5.8V51.71c0-4.85-.48-5.46-6.14-5.46v-2.12c3.21,0,2.87,.2,9.62,.2s4.91-.2,9.42-.2v2.12c-5.67,0-6.14,.61-6.14,5.46v33.85Z"/><path class="cls-3" d="M369.98,42.91l18.77,43.89c.96,2.25,2.39,4.44,3.82,4.5l2.46,.07v2.12c-1.43-.07-7.03-.2-9.42-.2-2.18,0-7.58,.07-9.62,.2v-2.12l3.48-.2c1.5-.07,2.93-.61,2.93-1.43,0-1.02-.75-2.59-4.78-12.69h-20.41c-3.89,9.49-4.5,10.99-4.5,12.15,0,1.43,1.5,2.05,3.69,2.12l2.32,.07v2.12c-1.5-.07-6.01-.2-8.12-.2-2.8,0-7.3,.14-8.19,.2v-2.12l2.66-.2c1.71-.14,3-1.64,3.82-3.48l19.52-44.77h1.57Zm6.35,31.19l-8.94-21.09-9.01,21.09h17.95Z"/><path class="cls-3" d="M456.66,85.56c0,5.12,.27,5.8,6.14,5.8v2.12c-.82-.07-6.69-.2-9.42-.2-3.48,0-8.87,.07-9.62,.2v-2.12c5.87,0,6.14-.68,6.14-5.8v-16.65c-.89-.07-3.28-.14-5.87-.14h-16.65c-3.07,0-5.05,.07-5.87,.14v16.65c0,5.12,.27,5.8,6.14,5.8v2.12c-.82-.07-6.69-.2-9.42-.2-3.48,0-8.87,.07-9.62,.2v-2.12c5.87,0,6.14-.68,6.14-5.8V51.71c0-4.85-.48-5.46-6.14-5.46v-2.12c3.21,0,2.87,.2,9.62,.2s4.91-.2,9.42-.2v2.12c-5.67,0-6.14,.61-6.14,5.46v13.79c.41,.07,3.34,.14,5.87,.14h16.65c3.07,0,5.05-.07,5.87-.14v-13.79c0-4.85-.48-5.46-6.14-5.46v-2.12c3.21,0,2.87,.2,9.62,.2s4.91-.2,9.42-.2v2.12c-5.67,0-6.14,.61-6.14,5.46v33.85Z"/></g><g><path class="cls-1" d="M169.66,137.46c1.03-2.6,2.33-4.84,3.88-6.7,1.55-1.86,3.14-3.38,4.78-4.56,1.63-1.18,3.2-2.04,4.71-2.57,1.51-.54,2.74-.81,3.69-.81,1.03,0,1.84,.32,2.42,.96,.58,.64,.87,1.52,.87,2.64s-.23,2.27-.68,3.6c-.46,1.32-1.1,2.72-1.92,4.19-.83,1.47-1.8,2.98-2.92,4.53-1.12,1.55-2.34,3.07-3.66,4.56-1.32,1.53-2.73,2.97-4.22,4.31-1.49,1.34-2.99,2.52-4.5,3.54-1.51,1.01-3.02,1.82-4.53,2.42-1.51,.6-2.95,.9-4.31,.9-1.57,0-2.84-.51-3.81-1.52-.97-1.01-1.46-2.37-1.46-4.06,0-6.28,4.69-13.21,14.08-20.78,6.82-5.5,13-8.25,18.54-8.25,1.74,0,3.09,.36,4.06,1.08,.97,.72,1.46,1.73,1.46,3.01,0,2.69-1.72,4.4-5.15,5.15l.06-.37c1.57-.29,2.77-.85,3.6-1.67s1.24-1.84,1.24-3.04-.48-2.13-1.43-2.79c-.95-.66-2.29-.99-4.03-.99-2.98,0-6.05,.79-9.21,2.36-3.16,1.57-6.17,3.83-9.02,6.76-1.53,1.57-3.08,3.33-4.65,5.27-1.57,1.94-2.99,3.88-4.25,5.8-1.26,1.92-2.29,3.74-3.07,5.46-.79,1.72-1.18,3.15-1.18,4.31,0,1.24,.35,2.2,1.05,2.88,.7,.68,1.69,1.02,2.98,1.02,4.47,0,9.55-2.91,15.26-8.74,1.16-1.2,2.41-2.6,3.75-4.22,1.34-1.61,2.57-3.28,3.69-4.99,1.12-1.72,2.05-3.41,2.79-5.09,.74-1.67,1.12-3.19,1.12-4.56,0-1.03-.27-1.85-.81-2.45-.54-.6-1.24-.9-2.11-.9-.99,0-2.24,.3-3.75,.9-1.51,.6-3.07,1.5-4.68,2.7-1.61,1.2-3.16,2.69-4.65,4.47-1.49,1.78-2.69,3.87-3.6,6.26h-.43Z"/><path class="cls-1" d="M181.2,146.14c.91-.74,1.81-1.48,2.7-2.2,.89-.72,1.81-1.44,2.76-2.14-.17-.66-.08-1.23,.25-1.71,.33-.48,.72-.71,1.18-.71,.66,0,.99,.29,.99,.87,0,.21-.09,.4-.28,.59s-.4,.28-.65,.28c-.21,0-.54-.23-.99-.68-.17,.29-.25,.56-.25,.81,0,.62,.39,.93,1.18,.93,.08,0,.29-.04,.62-.12,.12,0,.24,0,.34-.03,.1-.02,.18-.03,.22-.03,.21,0,.4,.15,.59,.47,.19,.31,.28,.65,.28,1.02,0,.41-.34,1.02-1.02,1.83-.68,.81-1.44,1.64-2.26,2.51-.83,.87-1.58,1.7-2.26,2.48-.68,.79-1.02,1.34-1.02,1.67s.19,.5,.56,.5c.62,0,1.56-.41,2.82-1.24,1.26-.83,2.95-2.11,5.05-3.85,.41-.33,.73-.6,.96-.81,.23-.21,.51-.43,.84-.68v.5c-.21,.17-.72,.59-1.55,1.27-.83,.68-1.75,1.41-2.76,2.17-1.01,.77-2.03,1.46-3.04,2.08-1.01,.62-1.83,.93-2.45,.93-.54,0-.81-.33-.81-.99,0-1.9,.81-3.72,2.42-5.46l2.6-2.85c.16-.25,.47-.6,.93-1.05-.21,.04-.37,.07-.5,.09-.12,.02-.29,.03-.5,.03-.5,0-.97-.14-1.43-.43-.58,.46-1.41,1.1-2.48,1.92-1.08,.83-2.09,1.67-3.04,2.54v-.5Z"/><path class="cls-1" d="M193.48,146.14c1.08-.87,2.04-1.61,2.87-2.23,.83-.62,1.66-1.22,2.5-1.8h2.74l-5.86,6.57s-.09,.1-.16,.19c-.06,.08-.13,.17-.22,.25-1.37,1.49-2.06,2.4-2.06,2.73,0,.37,.19,.56,.56,.56,.83,0,2.11-.59,3.85-1.77,1.74-1.18,3.67-2.76,5.78-4.74v.5c-.46,.41-1.1,.97-1.93,1.67-.83,.7-1.71,1.41-2.64,2.11-.93,.7-1.85,1.31-2.76,1.83-.91,.52-1.68,.78-2.3,.78-.66,0-.99-.39-.99-1.18,0-1.03,.36-2.15,1.09-3.35,.73-1.2,1.96-2.71,3.71-4.53l1-.99c-.71,.41-1.54,.98-2.5,1.71-.96,.72-1.85,1.46-2.68,2.2v-.5Zm11.29-9.61c0,.33-.1,.6-.29,.81-.19,.21-.44,.31-.74,.31-.56,0-.83-.25-.83-.74,0-.33,.11-.61,.32-.84,.21-.23,.49-.34,.83-.34,.47,0,.71,.27,.71,.81Z"/><path class="cls-1" d="M215.74,146.39c-.17,.12-.35,.31-.56,.56-4.26,3.93-7.9,5.89-10.92,5.89-1.69,0-2.54-.95-2.54-2.85,0-1.45,.43-2.68,1.3-3.69,.87-1.01,1.88-1.85,3.04-2.51,1.16-.66,2.29-1.14,3.41-1.43,1.12-.29,1.92-.43,2.42-.43,.58,0,1.03,.13,1.36,.4,.33,.27,.5,.63,.5,1.08,0,1.08-.83,1.98-2.48,2.7-1.65,.72-3.8,1.13-6.45,1.21-.7,.83-1.26,1.58-1.67,2.26-.41,.68-.62,1.25-.62,1.71,0,.79,.58,1.18,1.74,1.18,1.45,0,3.07-.51,4.87-1.52,1.8-1.01,4-2.7,6.61-5.05v.5Zm-6.85-.03c.97-.27,1.78-.6,2.42-.99,.64-.39,1.12-.78,1.43-1.18,.31-.39,.47-.71,.47-.96,0-.58-.35-.87-1.05-.87-.91,0-1.97,.4-3.19,1.21-1.22,.81-2.41,1.87-3.57,3.19,1.36,0,2.53-.13,3.5-.4Z"/><path class="cls-1" d="M215.43,146.14c.45-.41,.96-.86,1.52-1.33,.56-.47,1.13-.92,1.71-1.33,.58-.41,1.14-.76,1.67-1.05,.54-.29,.99-.43,1.36-.43,.7,0,1.05,.43,1.05,1.3,0,.7-.26,1.45-.78,2.23-.52,.79-1.33,1.88-2.45,3.29l1.61-1.24c.74-.58,1.51-1.14,2.29-1.67,.79-.54,1.52-1.03,2.2-1.49,.68-.45,1.31-.86,1.89-1.21,.58-.35,1.05-.61,1.43-.78,.74-.29,1.34-.43,1.8-.43,.74,0,1.12,.48,1.12,1.43s-.33,1.88-.99,2.79c-.66,.91-1.72,1.9-3.16,2.98-.87,.62-1.48,1.13-1.83,1.52-.35,.39-.53,.73-.53,1.02,0,.21,.09,.38,.28,.53,.19,.15,.38,.22,.59,.22,.08,0,.29-.04,.62-.12,.33-.08,.87-.33,1.61-.74,.74-.41,1.71-1.06,2.88-1.95,1.18-.89,2.66-2.14,4.43-3.75v.5c-.25,.21-.77,.66-1.55,1.36-.79,.7-1.66,1.43-2.64,2.17-.97,.74-1.95,1.42-2.95,2.02-.99,.6-1.82,.9-2.48,.9-.37,0-.69-.13-.96-.4-.27-.27-.4-.59-.4-.96,0-.79,.3-1.64,.9-2.57,.6-.93,1.44-1.87,2.51-2.82,1.9-1.61,2.85-2.69,2.85-3.23,0-.12-.06-.24-.19-.34-.12-.1-.25-.16-.37-.16-.37,0-1.06,.27-2.08,.81-1.01,.54-2.19,1.27-3.54,2.2-1.34,.93-2.8,2.03-4.37,3.29-1.57,1.26-3.1,2.6-4.59,4h-2.42l4.03-4.53c1.32-1.41,2.4-2.59,3.23-3.57,.83-.97,1.24-1.58,1.24-1.83s-.17-.37-.5-.37c-.29,0-.7,.16-1.24,.47-.54,.31-1.1,.69-1.67,1.15-.58,.46-1.16,.92-1.74,1.4-.58,.48-1.05,.9-1.43,1.27v-.5Z"/><path class="cls-1" d="M250.72,132.13l2.67-.19-5.02,5.71h3.91l-.37,.43h-3.91l-7.38,8.37c-.54,.62-1.06,1.23-1.58,1.83-.52,.6-.97,1.14-1.36,1.61-.39,.48-.71,.88-.96,1.21-.25,.33-.37,.54-.37,.62,0,.12,.08,.25,.25,.37,.17,.12,.35,.19,.56,.19,1.03,0,2.43-.56,4.19-1.67,1.76-1.12,3.79-2.69,6.11-4.71v.5l-1.3,1.18c-2.15,1.86-3.94,3.18-5.36,3.97-1.43,.79-2.66,1.18-3.69,1.18-.46,0-.82-.11-1.08-.34-.27-.23-.4-.51-.4-.84,0-.99,.57-2.34,1.71-4.03,1.14-1.7,2.78-3.66,4.93-5.89,.78-.87,1.34-1.51,1.67-1.92-1.08,.66-2.27,1.55-3.6,2.67-1.32,1.12-2.94,2.54-4.84,4.28v-.5l1.05-.93c.95-.87,1.81-1.63,2.57-2.29,.76-.66,1.49-1.27,2.17-1.83s1.34-1.07,1.98-1.55c.64-.48,1.33-.96,2.08-1.46h-2.23l.5-.43h2.23l4.9-5.52Z"/><path class="cls-1" d="M263.56,146.39l-1.18,.99c-1.98,1.74-3.7,3.08-5.15,4.03-1.45,.95-2.52,1.43-3.23,1.43-.54,0-.81-.35-.81-1.05,0-.29,.05-.63,.15-1.02,.1-.39,.3-1.02,.59-1.89-.17,.17-.31,.29-.43,.37-.12,.08-.29,.23-.5,.43-1.36,1.16-2.47,1.98-3.32,2.45-.85,.48-1.58,.71-2.2,.71-.58,0-1.05-.26-1.43-.78-.37-.52-.56-1.19-.56-2.02,0-1.28,.38-2.43,1.15-3.44,.77-1.01,1.69-1.86,2.79-2.54,1.1-.68,2.24-1.2,3.44-1.55,1.2-.35,2.21-.53,3.04-.53,1.12,0,1.67,.46,1.67,1.36,0,.21-.01,.36-.03,.47-.02,.1-.05,.26-.09,.47l1.86-2.11,2.54-.19-.74,.99c-1.08,1.2-1.94,2.19-2.6,2.98-.46,.5-.95,1.04-1.49,1.64-.54,.6-1.04,1.19-1.52,1.77-.48,.58-.88,1.11-1.21,1.58-.33,.48-.5,.82-.5,1.02,0,.29,.12,.43,.37,.43,.45,0,1.1-.25,1.92-.74,.83-.5,1.7-1.09,2.6-1.77,.91-.68,1.8-1.4,2.67-2.14,.87-.74,1.59-1.36,2.17-1.86v.5Zm-10.85-2.79c-1.12,.79-2.15,1.69-3.1,2.7-.95,1.01-1.73,2.01-2.33,2.98-.6,.97-.9,1.66-.9,2.08,0,.29,.1,.54,.31,.74,.21,.21,.48,.31,.81,.31,.66,0,1.54-.35,2.64-1.05,1.1-.7,2.17-1.54,3.23-2.51,1.05-.97,1.95-1.95,2.7-2.95,.74-.99,1.12-1.8,1.12-2.42,0-.78-.39-1.18-1.18-1.18-1.08,.08-2.17,.52-3.29,1.3Z"/><path class="cls-1" d="M285.95,126.24l-18.98,21.21c-.33,.37-.69,.78-1.09,1.21-.39,.43-.77,.87-1.12,1.3-.35,.43-.64,.82-.87,1.15-.23,.33-.34,.58-.34,.74,0,.41,.19,.62,.56,.62,1.28,0,3.95-1.88,8-5.64,.25-.21,.44-.37,.59-.5,.14-.12,.32-.27,.53-.43v.5c-.37,.29-.68,.54-.93,.74-.25,.21-.56,.48-.93,.81-1.49,1.32-2.86,2.47-4.12,3.44-1.26,.97-2.29,1.46-3.07,1.46-.33,0-.62-.13-.87-.4-.25-.27-.37-.59-.37-.96,0-.58,.18-1.22,.53-1.92,.35-.7,.79-1.43,1.3-2.17,.52-.74,1.11-1.49,1.77-2.23,.66-.74,1.3-1.45,1.92-2.11,.33-.37,.73-.84,1.21-1.4,.48-.56,1.04-1.21,1.71-1.95-.54,.41-1.19,.94-1.95,1.58-.77,.64-1.54,1.3-2.33,1.98-.79,.68-1.52,1.32-2.2,1.92-.68,.6-1.23,1.09-1.64,1.46v-.5l8.62-7.5c.91-.79,2.18-2.04,3.81-3.75,1.63-1.71,3.81-4.1,6.54-7.16l1.24-1.43,2.48-.06Z"/><path class="cls-1" d="M315.65,124.5c.08,2.15-.36,4.24-1.33,6.26-.97,2.03-2.22,3.82-3.75,5.4-1.53,1.57-3.22,2.83-5.05,3.78-1.84,.95-3.59,1.43-5.24,1.43-1.41,0-2.53-.44-3.38-1.33-.85-.89-1.27-2.08-1.27-3.57,0-2.15,.6-4.24,1.8-6.26,1.2-2.03,2.79-3.82,4.78-5.4,1.98-1.57,4.25-2.83,6.79-3.78,2.54-.95,5.18-1.43,7.91-1.43,2.52,0,4.59,.42,6.2,1.27,1.61,.85,3,2.26,4.16,4.25,.7-.58,1.59-1.2,2.67-1.86,1.08-.66,2.23-1.28,3.47-1.86l.12,.37c-.7,.37-1.32,.7-1.86,.99-.54,.29-1.03,.57-1.49,.84-.46,.27-.9,.56-1.33,.87-.43,.31-.9,.67-1.4,1.09,.33,1.03,.57,1.89,.71,2.57,.14,.68,.22,1.46,.22,2.33,0,1.28-.23,2.76-.68,4.43-.46,1.67-1.12,3.4-1.98,5.18-.87,1.78-1.96,3.52-3.29,5.21-1.32,1.7-2.85,3.2-4.59,4.53-1.74,1.32-3.68,2.4-5.83,3.23-2.15,.83-4.51,1.24-7.07,1.24-2.23,0-4.34-.33-6.33-.99-.58,.17-1.2,.31-1.86,.43-.66,.12-1.32,.23-1.98,.31-.7,.08-1.39,.14-2.05,.19-.66,.04-1.28,.06-1.86,.06-1.49,0-2.65-.13-3.47-.4-.83-.27-1.24-.65-1.24-1.15,0-.58,.35-1.02,1.05-1.33,.7-.31,1.65-.46,2.85-.46,1.32,0,2.6,.15,3.85,.43,1.24,.29,2.81,.79,4.71,1.49,1.9-.54,3.56-1.17,4.96-1.89,1.41-.72,2.71-1.61,3.91-2.67,1.2-1.05,2.36-2.29,3.47-3.72,1.12-1.43,2.34-3.11,3.66-5.05,2.6-3.8,4.97-6.84,7.1-9.12,2.13-2.27,3.85-3.93,5.18-4.96-1.08-1.9-2.39-3.28-3.94-4.12-1.55-.85-3.5-1.27-5.86-1.27-2.03,0-3.95,.29-5.77,.87-1.82,.58-3.49,1.34-5.02,2.29-1.53,.95-2.92,2.05-4.16,3.29-1.24,1.24-2.29,2.49-3.16,3.75-.87,1.26-1.53,2.5-1.98,3.72-.46,1.22-.68,2.31-.68,3.26,0,1.2,.34,2.12,1.02,2.76,.68,.64,1.62,.96,2.82,.96,1.45,0,3.04-.4,4.78-1.21,1.74-.81,3.36-1.93,4.87-3.38,1.51-1.45,2.78-3.17,3.81-5.18,1.03-2,1.61-4.23,1.74-6.67h.31Zm-28.22,29.09c.66,.25,1.53,.37,2.6,.37,1.57,0,2.98-.07,4.22-.22,1.24-.15,2.46-.38,3.66-.71-1.61-.66-2.99-1.12-4.12-1.36-1.14-.25-2.37-.37-3.69-.37-1.12,0-2.01,.12-2.67,.37-.66,.25-.99,.6-.99,1.05,0,.33,.33,.62,.99,.87Zm40.31-25.46c-.12-.6-.35-1.35-.68-2.26-.74,.58-1.44,1.2-2.08,1.86-.64,.66-1.28,1.4-1.92,2.2-.64,.81-1.28,1.73-1.92,2.76-.64,1.03-1.33,2.23-2.08,3.6-.7,1.32-1.55,2.78-2.54,4.37-.99,1.59-2.25,3.16-3.78,4.71-1.53,1.55-3.38,3.01-5.55,4.37-2.17,1.36-4.81,2.48-7.91,3.35,.78,.29,1.67,.51,2.67,.65,.99,.14,1.98,.22,2.98,.22,2.32,0,4.5-.37,6.54-1.12,2.05-.74,3.92-1.75,5.61-3.01,1.69-1.26,3.21-2.7,4.56-4.31,1.34-1.61,2.48-3.3,3.41-5.05,.93-1.76,1.64-3.51,2.14-5.27,.5-1.76,.74-3.38,.74-4.87,0-.87-.06-1.6-.19-2.2Z"/><path class="cls-1" d="M341.27,146.39l-1.18,.99c-1.98,1.74-3.7,3.08-5.15,4.03-1.45,.95-2.52,1.43-3.23,1.43-.54,0-.81-.35-.81-1.05,0-.29,.05-.63,.16-1.02,.1-.39,.3-1.02,.59-1.89-.17,.17-.31,.29-.43,.37-.12,.08-.29,.23-.5,.43-1.36,1.16-2.47,1.98-3.32,2.45-.85,.48-1.58,.71-2.2,.71-.58,0-1.05-.26-1.43-.78-.37-.52-.56-1.19-.56-2.02,0-1.28,.38-2.43,1.15-3.44,.77-1.01,1.69-1.86,2.79-2.54,1.09-.68,2.24-1.2,3.44-1.55,1.2-.35,2.21-.53,3.04-.53,1.12,0,1.67,.46,1.67,1.36,0,.21-.01,.36-.03,.47-.02,.1-.05,.26-.09,.47l1.86-2.11,2.54-.19-.74,.99c-1.08,1.2-1.94,2.19-2.6,2.98-.46,.5-.95,1.04-1.49,1.64-.54,.6-1.04,1.19-1.52,1.77-.48,.58-.88,1.11-1.21,1.58-.33,.48-.5,.82-.5,1.02,0,.29,.12,.43,.37,.43,.45,0,1.09-.25,1.92-.74,.83-.5,1.69-1.09,2.6-1.77,.91-.68,1.8-1.4,2.67-2.14,.87-.74,1.59-1.36,2.17-1.86v.5Zm-10.85-2.79c-1.12,.79-2.15,1.69-3.1,2.7-.95,1.01-1.73,2.01-2.33,2.98-.6,.97-.9,1.66-.9,2.08,0,.29,.1,.54,.31,.74,.21,.21,.48,.31,.81,.31,.66,0,1.54-.35,2.64-1.05,1.09-.7,2.17-1.54,3.23-2.51,1.05-.97,1.95-1.95,2.7-2.95s1.12-1.8,1.12-2.42c0-.78-.39-1.18-1.18-1.18-1.08,.08-2.17,.52-3.29,1.3Z"/><path class="cls-1" d="M340.96,146.14c.45-.41,.96-.86,1.52-1.33,.56-.47,1.13-.92,1.71-1.33,.58-.41,1.14-.76,1.67-1.05,.54-.29,.99-.43,1.36-.43,.7,0,1.05,.43,1.05,1.3,0,.7-.26,1.45-.78,2.23-.52,.79-1.33,1.88-2.45,3.29l1.61-1.24c.74-.58,1.51-1.14,2.29-1.67,.78-.54,1.52-1.03,2.2-1.49,.68-.45,1.31-.86,1.89-1.21,.58-.35,1.05-.61,1.43-.78,.74-.29,1.34-.43,1.8-.43,.74,0,1.12,.48,1.12,1.43s-.33,1.88-.99,2.79c-.66,.91-1.72,1.9-3.16,2.98-.87,.62-1.48,1.13-1.83,1.52-.35,.39-.53,.73-.53,1.02,0,.21,.09,.38,.28,.53,.19,.15,.38,.22,.59,.22,.08,0,.29-.04,.62-.12,.33-.08,.87-.33,1.61-.74,.74-.41,1.71-1.06,2.88-1.95,1.18-.89,2.66-2.14,4.43-3.75v.5c-.25,.21-.77,.66-1.55,1.36-.79,.7-1.67,1.43-2.64,2.17-.97,.74-1.95,1.42-2.95,2.02-.99,.6-1.82,.9-2.48,.9-.37,0-.69-.13-.96-.4-.27-.27-.4-.59-.4-.96,0-.79,.3-1.64,.9-2.57,.6-.93,1.44-1.87,2.51-2.82,1.9-1.61,2.85-2.69,2.85-3.23,0-.12-.06-.24-.19-.34-.12-.1-.25-.16-.37-.16-.37,0-1.07,.27-2.08,.81-1.01,.54-2.19,1.27-3.54,2.2-1.34,.93-2.8,2.03-4.37,3.29-1.57,1.26-3.1,2.6-4.59,4h-2.42l4.03-4.53c1.32-1.41,2.4-2.59,3.23-3.57,.83-.97,1.24-1.58,1.24-1.83s-.17-.37-.5-.37c-.29,0-.7,.16-1.24,.47-.54,.31-1.1,.69-1.67,1.15-.58,.46-1.16,.92-1.74,1.4-.58,.48-1.05,.9-1.43,1.27v-.5Z"/><path class="cls-1" d="M373.58,146.39c-2.27,2.03-4.37,3.61-6.29,4.74-1.92,1.14-3.65,1.71-5.18,1.71-1.65,0-2.48-.99-2.48-2.98,0-1.28,.39-2.41,1.18-3.38,.79-.97,1.73-1.79,2.82-2.45,1.09-.66,2.22-1.17,3.38-1.52,1.16-.35,2.13-.53,2.92-.53,1.16,0,1.74,.46,1.74,1.36,0,.54-.19,1.01-.56,1.43-.37,.41-.81,.62-1.3,.62-.62,0-.93-.27-.93-.81,0-.29,.1-.54,.31-.74,.21-.21,.46-.31,.74-.31,.37,0,.62,.15,.74,.43,.04,.17,.12,.25,.25,.25,.08,0,.17-.08,.25-.25,.08-.17,.12-.35,.12-.56,0-.7-.41-1.05-1.24-1.05-.91,0-1.92,.36-3.04,1.09-1.12,.72-2.16,1.58-3.13,2.57-.97,.99-1.79,2.01-2.45,3.04-.66,1.03-.99,1.84-.99,2.42,0,.66,.54,.99,1.61,.99,.99,0,2.06-.26,3.19-.78,1.14-.52,2.23-1.13,3.29-1.83,1.05-.7,2.04-1.43,2.95-2.17,.91-.74,1.61-1.34,2.11-1.8v.5Z"/><path class="cls-1" d="M385.86,146.39c-.17,.12-.35,.31-.56,.56-4.26,3.93-7.9,5.89-10.92,5.89-1.69,0-2.54-.95-2.54-2.85,0-1.45,.43-2.68,1.3-3.69,.87-1.01,1.88-1.85,3.04-2.51,1.16-.66,2.29-1.14,3.41-1.43,1.12-.29,1.92-.43,2.42-.43,.58,0,1.03,.13,1.36,.4,.33,.27,.5,.63,.5,1.08,0,1.08-.83,1.98-2.48,2.7-1.65,.72-3.8,1.13-6.45,1.21-.7,.83-1.26,1.58-1.67,2.26-.41,.68-.62,1.25-.62,1.71,0,.79,.58,1.18,1.74,1.18,1.45,0,3.07-.51,4.87-1.52,1.8-1.01,4-2.7,6.6-5.05v.5Zm-6.85-.03c.97-.27,1.78-.6,2.42-.99,.64-.39,1.12-.78,1.43-1.18,.31-.39,.46-.71,.46-.96,0-.58-.35-.87-1.05-.87-.91,0-1.98,.4-3.19,1.21-1.22,.81-2.41,1.87-3.57,3.19,1.36,0,2.53-.13,3.5-.4Z"/><path class="cls-1" d="M423.81,137.03c2.11-2.85,4.39-5.55,6.85-8.09,2.46-2.54,5.28-4.6,8.47-6.17l.31,.25c-.79,.41-1.65,.89-2.6,1.43-.95,.54-1.93,1.23-2.95,2.08-1.01,.85-2.06,1.9-3.13,3.16-1.08,1.26-2.13,2.82-3.16,4.68-.87,1.57-1.62,2.89-2.26,3.97-.64,1.08-1.22,2.02-1.74,2.82-.52,.81-1,1.51-1.46,2.11-.46,.6-.93,1.19-1.43,1.77-2.65,2.98-5.77,5.29-9.37,6.95-3.6,1.65-7.3,2.48-11.1,2.48-2.15,0-3.83-.33-5.02-.99-1.2-.66-1.8-1.59-1.8-2.79,0-.7,.17-1.27,.53-1.71,.35-.43,.82-.65,1.4-.65,.37,0,.68,.11,.93,.34,.25,.23,.37,.51,.37,.84,0,.62-.31,.93-.93,.93-.33,0-.61-.12-.84-.37-.23-.25-.26-.64-.09-1.18-.41,.21-.69,.43-.84,.68-.15,.25-.22,.6-.22,1.05,0,1.08,.56,1.91,1.67,2.51,1.12,.6,2.62,.9,4.53,.9,2.32,0,4.34-.24,6.08-.71,1.74-.48,3.23-1.04,4.47-1.71,1.24-.66,2.26-1.34,3.07-2.05,.81-.7,1.46-1.3,1.95-1.8,.5-.5,.92-.94,1.27-1.33,.35-.39,.76-.9,1.24-1.52,.47-.62,1.09-1.45,1.86-2.48,.76-1.03,1.81-2.46,3.13-4.28l.81-1.12Zm5.46-11.91c-1.36,2.81-2.86,4.97-4.5,6.48-1.63,1.51-3.17,2.62-4.62,3.32-1.45,.7-2.68,1.12-3.69,1.24-1.01,.12-1.58,.19-1.71,.19-1.53,0-2.74-.37-3.63-1.12-.89-.74-1.33-1.76-1.33-3.04,0-.99,.35-2.18,1.05-3.57,.7-1.38,1.84-2.7,3.41-3.94,1.57-1.24,3.59-2.3,6.05-3.19,2.46-.89,5.47-1.33,9.02-1.33,1.16,0,2.42,.05,3.78,.14,1.37,.09,3.14,.21,5.33,.36,1.99,.23,3.54,.39,4.68,.48,1.14,.09,2.18,.14,3.13,.14,3.43,0,5.67-.39,6.7-1.18h.56c-.46,.46-1.08,.84-1.86,1.15-.79,.31-1.61,.56-2.48,.74s-1.73,.33-2.57,.43c-.85,.1-1.56,.15-2.14,.15s-1.43-.07-2.54-.22-2.48-.37-4.09-.67c-2.32-.38-4.23-.66-5.74-.83-1.51-.17-2.86-.26-4.06-.26-2.85,0-5.39,.4-7.6,1.19-2.21,.8-4.08,1.79-5.61,2.98-1.53,1.19-2.69,2.45-3.47,3.8-.79,1.34-1.18,2.57-1.18,3.69s.4,1.96,1.21,2.67c.81,.7,1.87,1.05,3.19,1.05,.99,0,2.13-.23,3.41-.68,1.28-.45,2.58-1.14,3.91-2.05,1.32-.91,2.59-2.04,3.81-3.38,1.22-1.34,2.26-2.92,3.13-4.74h.43Z"/><path class="cls-1" d="M438.64,146.39c-.17,.12-.35,.31-.56,.56-4.26,3.93-7.9,5.89-10.92,5.89-1.69,0-2.54-.95-2.54-2.85,0-1.45,.43-2.68,1.3-3.69,.87-1.01,1.88-1.85,3.04-2.51,1.16-.66,2.29-1.14,3.41-1.43,1.12-.29,1.92-.43,2.42-.43,.58,0,1.03,.13,1.36,.4,.33,.27,.5,.63,.5,1.08,0,1.08-.83,1.98-2.48,2.7-1.65,.72-3.8,1.13-6.45,1.21-.7,.83-1.26,1.58-1.67,2.26-.41,.68-.62,1.25-.62,1.71,0,.79,.58,1.18,1.74,1.18,1.45,0,3.07-.51,4.87-1.52,1.8-1.01,4-2.7,6.6-5.05v.5Zm-6.85-.03c.97-.27,1.78-.6,2.42-.99,.64-.39,1.12-.78,1.43-1.18,.31-.39,.46-.71,.46-.96,0-.58-.35-.87-1.05-.87-.91,0-1.98,.4-3.19,1.21-1.22,.81-2.41,1.87-3.57,3.19,1.36,0,2.53-.13,3.5-.4Z"/><path class="cls-1" d="M454.76,146.39l-1.18,.99c-1.98,1.74-3.7,3.08-5.15,4.03-1.45,.95-2.52,1.43-3.23,1.43-.54,0-.81-.35-.81-1.05,0-.29,.05-.63,.16-1.02,.1-.39,.3-1.02,.59-1.89-.17,.17-.31,.29-.43,.37-.12,.08-.29,.23-.5,.43-1.36,1.16-2.47,1.98-3.32,2.45-.85,.48-1.58,.71-2.2,.71-.58,0-1.05-.26-1.43-.78-.37-.52-.56-1.19-.56-2.02,0-1.28,.38-2.43,1.15-3.44,.77-1.01,1.69-1.86,2.79-2.54,1.09-.68,2.24-1.2,3.44-1.55,1.2-.35,2.21-.53,3.04-.53,1.12,0,1.67,.46,1.67,1.36,0,.21-.01,.36-.03,.47-.02,.1-.05,.26-.09,.47l1.86-2.11,2.54-.19-.74,.99c-1.08,1.2-1.94,2.19-2.6,2.98-.46,.5-.95,1.04-1.49,1.64-.54,.6-1.04,1.19-1.52,1.77-.48,.58-.88,1.11-1.21,1.58-.33,.48-.5,.82-.5,1.02,0,.29,.12,.43,.37,.43,.45,0,1.09-.25,1.92-.74,.83-.5,1.69-1.09,2.6-1.77,.91-.68,1.8-1.4,2.67-2.14,.87-.74,1.59-1.36,2.17-1.86v.5Zm-10.85-2.79c-1.12,.79-2.15,1.69-3.1,2.7-.95,1.01-1.73,2.01-2.33,2.98-.6,.97-.9,1.66-.9,2.08,0,.29,.1,.54,.31,.74,.21,.21,.48,.31,.81,.31,.66,0,1.54-.35,2.64-1.05,1.09-.7,2.17-1.54,3.23-2.51,1.05-.97,1.95-1.95,2.7-2.95s1.12-1.8,1.12-2.42c0-.78-.39-1.18-1.18-1.18-1.08,.08-2.17,.52-3.29,1.3Z"/><path class="cls-1" d="M458.92,145.52c.87-.95,1.45-1.61,1.74-1.98,.29-.37,.43-.66,.43-.87s-.14-.31-.43-.31c-.41,0-1.02,.27-1.83,.81-.81,.54-1.93,1.41-3.38,2.6l-.99,.87v-.5c1.41-1.28,2.69-2.3,3.84-3.07,1.16-.76,2.01-1.15,2.54-1.15,.7,0,1.05,.41,1.05,1.24s-.26,1.58-.78,2.39c-.52,.81-1.19,1.73-2.02,2.76,2.56-2.11,4.59-3.69,6.08-4.74s2.83-1.58,4.03-1.58c.74,0,1.12,.33,1.12,.99,0,.37-.05,.73-.16,1.09-.1,.35-.28,.73-.53,1.15-.25,.41-.57,.9-.96,1.46-.39,.56-.88,1.23-1.46,2.02l.87-.68c1.74-1.32,3.38-2.5,4.93-3.54,1.55-1.03,2.72-1.72,3.5-2.05,.7-.29,1.26-.43,1.67-.43,.33,0,.6,.13,.81,.4,.21,.27,.31,.61,.31,1.02,0,.95-.32,1.88-.96,2.79-.64,.91-1.71,1.9-3.19,2.98-.91,.66-1.55,1.19-1.92,1.58-.37,.39-.56,.75-.56,1.09,0,.41,.25,.62,.74,.62,.45,0,1.02-.18,1.71-.53,.68-.35,1.45-.83,2.29-1.43,.85-.6,1.76-1.3,2.73-2.11,.97-.81,1.97-1.64,3.01-2.51v.5l-.81,.74c-.83,.7-1.67,1.4-2.51,2.08-.85,.68-1.67,1.29-2.45,1.83-.79,.54-1.52,.97-2.2,1.3-.68,.33-1.27,.5-1.77,.5-.79,0-1.18-.37-1.18-1.12,0-1.74,1.28-3.72,3.85-5.95,1.65-1.41,2.48-2.38,2.48-2.92,0-.33-.17-.5-.5-.5s-.93,.22-1.8,.65-1.95,1.09-3.26,1.95-2.77,1.94-4.4,3.23c-1.63,1.28-3.34,2.77-5.12,4.47h-2.6l4.47-4.84c.41-.41,.87-.9,1.36-1.46s.95-1.09,1.36-1.58c.41-.5,.76-.93,1.05-1.3,.29-.37,.43-.62,.43-.74,0-.29-.17-.43-.5-.43-.54,0-1.39,.33-2.54,.99-.58,.33-1.15,.68-1.71,1.05-.56,.37-1.23,.86-2.02,1.46-.79,.6-1.73,1.39-2.82,2.36-1.1,.97-2.45,2.2-4.06,3.69l-.87,.81h-2.6l6.45-7.13Z"/></g><polygon class="cls-2" points="173.26 106.31 483.96 106.31 487.09 109 170.39 109 173.26 106.31"/><g><g><path class="cls-3" d="M146.21,83.71c-9.42-10.19-20.56-12.22-34.67-14.76-2.84-.51-5.78-1.04-8.89-1.67-17.26-3.48-24.12-15.68-23.92-26.29-.45-19.48,16.82-28.03,28.5-21.66,6.17,3.36,9.27,8.98,9.33,13.92,.06,5-3.58,9.75-9.17,9.85-5.61,.1-9.51-8.49-4.36-11.29-.2-.88-.7-1.69-2.26-2.24-2.94,1.68-3.78,6.18-1.98,9.66,1.7,3.29,5.41,5.05,8.73,4.83,3.29-.22,6.06-2.32,7.79-5.03,1.53-2.73,2.03-6.03,1.18-8.96-3.03-10.43-13.99-14.65-22.32-12.68-11.64,2.75-17.03,13.41-17.2,22.76-.21,11.01,7.7,24.18,25.51,27.77,3.12,.63,6.14,1.12,8.98,1.64,14.9,2.53,25.07,4.32,34.24,14.29,3.56,3.86,8.31,12.58,8.15,20.99,.08-.09-.42-8.67-.34-8.76-1.64-4.43-3.99-8.65-7.31-12.37Z"/><path class="cls-2" d="M80.76,142.37c28.82-1.91,41.52-34.3,21.61-52.86-2.59-2.19-4.89,.5-2.41,2.64,17.75,16.23,8.29,43.07-19.4,47.12-27.69,4.05-64.28-24.78-48.02-63.87,27.52-66.13,105.7-29.59,121.86,25.94l-.83-4.64C132.87,36.73,54.14,13.34,30.04,74.1c-15.36,38.73,21.89,70.18,50.72,68.27Z"/><path class="cls-2" d="M160.52,50.52c.08,5.46-.83,11.25-4.84,17.18-2.69,3.98-7.02,4.94-7.76,9.08-.76,4.21,1.48,7.66,3.1,11.19,.96,2.09,1.87,3.41,.55,5.3-.7-3.78-2.64-8.53-6.17-13.12-1.69-2.19-5.32-8.76-3.4-17.12,1.8-7.83,9.63-10.17,13.88-13.81,4.36-3.72,8.81-8.01,6.37-13-.33-.67,.47-1.13,1.07-.02,2.23,4.1-2.87,9.46-2.8,14.31h0Zm-14.93,22.85c-.11-7.13,13.47-17.39,13.26-23.14-.31,5.67-17.54,15.26-13.26,23.14Z"/><path class="cls-2" d="M132.79,89.1c1.74,4.42,4.37,8.78,9.55,12.23,5.84,3.9,10.76,8.26,12.05,13.73-1.72-8.11,2.46-14.83-2.58-21.98-4.02-5.71-11.09-5.01-15.71-6.53-4.74-1.56-7.54-5.1-11.42-5.16-1.6-.03-.97,1.25-.3,1.1,4.46-.99,6.87,2.69,8.42,6.62h0Zm19.59,15.74c-2.17-6.84-16.61-11.82-18.33-16.52,2.07,4.97,16.57,7.12,18.33,16.52Z"/><path class="cls-3" d="M144.57,77.53c-7.32-11.24-15.98-20.91-32.18-25.04-16.26-4.12-28.89,1.16-44.87,7.88-3.22,1.35-6.55,2.75-10.11,4.17-19.79,7.85-34.78,0-41.57-10.89C2.54,34.2,14.42,14.16,30.45,12.91c8.46-.66,15.32,2.99,18.63,7.96,3.35,5.03,2.79,12.25-2.8,16.03-3.09,2.09-7.56,2.98-10.91,1.07C17.47,27.82,34.79-2.96,55.3,1.9c2.58,.61,2.4-1.11-.05-1.48-20.1-4.44-38.69,27.73-20.24,38.23,3.89,2.21,8.81,1.56,12.04-.86,3.19-2.39,4.62-6.34,4.58-10.23-.25-3.77-1.92-7.45-4.71-9.86-9.95-8.58-23.83-5.63-30.98,1.86-9.98,10.46-8.42,24.82-2.44,34.4,7.04,11.3,23.74,19.44,44.16,11.33,3.57-1.42,6.96-2.9,10.19-4.26,16.77-7.26,28.54-12.3,44.41-8.24,16.89,4.31,25.33,15.45,32.83,27.66-.18-.98-.36-1.95-.51-2.93Z"/><path class="cls-2" d="M50.58,67.67c-18.48,4.42-37.09-6.03-43.14-23.7-2.02-5.9-5.09-6.43-7.43-5.59,6.31,21.57,28.5,34.57,50.54,29.3,.01,0,.03,0,.04-.01Z"/></g><g><path class="cls-3" d="M511.27,83.71c9.42-10.19,20.56-12.22,34.67-14.76,2.84-.51,5.78-1.04,8.89-1.67,17.26-3.48,24.12-15.68,23.92-26.29,.45-19.48-16.82-28.03-28.5-21.66-6.17,3.36-9.27,8.98-9.33,13.92-.06,5,3.58,9.75,9.17,9.85,5.61,.1,9.51-8.49,4.36-11.29,.2-.88,.7-1.69,2.26-2.24,2.94,1.68,3.78,6.18,1.98,9.66-1.7,3.29-5.41,5.05-8.73,4.83-3.29-.22-6.06-2.32-7.79-5.03-1.53-2.73-2.03-6.03-1.18-8.96,3.03-10.43,13.99-14.65,22.32-12.68,11.64,2.75,17.03,13.41,17.2,22.76,.21,11.01-7.7,24.18-25.51,27.77-3.12,.63-6.14,1.12-8.98,1.64-14.9,2.53-25.07,4.32-34.24,14.29-3.56,3.86-8.31,12.58-8.15,20.99-.09-.09,.42-8.67,.33-8.76,1.64-4.43,3.99-8.65,7.31-12.37Z"/><path class="cls-2" d="M576.72,142.37c-28.83-1.91-41.52-34.3-21.61-52.86,2.59-2.19,4.89,.5,2.41,2.64-17.75,16.23-8.29,43.07,19.4,47.12,27.69,4.05,64.28-24.78,48.02-63.87-27.52-66.13-105.7-29.59-121.86,25.94l.83-4.64c20.7-59.97,99.43-83.37,123.53-22.6,15.36,38.73-21.89,70.18-50.72,68.27Z"/><path class="cls-2" d="M496.96,50.52c-.08,5.46,.83,11.25,4.84,17.18,2.69,3.98,7.02,4.94,7.76,9.08,.76,4.21-1.48,7.66-3.1,11.19-.96,2.09-1.87,3.41-.55,5.3,.7-3.78,2.64-8.53,6.17-13.12,1.69-2.19,5.32-8.76,3.4-17.12-1.8-7.83-9.63-10.17-13.88-13.81-4.37-3.72-8.81-8.01-6.37-13,.33-.67-.47-1.13-1.07-.02-2.23,4.1,2.87,9.46,2.8,14.31h0Zm14.93,22.85c.1-7.13-13.47-17.39-13.26-23.14,.31,5.67,17.54,15.26,13.26,23.14Z"/><path class="cls-2" d="M524.69,89.1c-1.74,4.42-4.37,8.78-9.55,12.23-5.84,3.9-10.76,8.26-12.05,13.73,1.72-8.11-2.46-14.83,2.58-21.98,4.02-5.71,11.09-5.01,15.71-6.53,4.74-1.56,7.54-5.1,11.42-5.16,1.6-.03,.97,1.25,.3,1.1-4.46-.99-6.88,2.69-8.42,6.62h0Zm-19.59,15.74c2.17-6.84,16.61-11.82,18.33-16.52-2.07,4.97-16.57,7.12-18.33,16.52Z"/><path class="cls-3" d="M512.91,77.53c7.32-11.24,15.98-20.91,32.18-25.04,16.26-4.12,28.89,1.16,44.87,7.88,3.22,1.35,6.55,2.75,10.11,4.17,19.79,7.85,34.78,0,41.58-10.89,13.3-19.45,1.41-39.5-14.62-40.74-8.46-.66-15.32,2.99-18.63,7.96-3.35,5.03-2.79,12.25,2.8,16.03,3.09,2.09,7.56,2.98,10.91,1.07,17.9-10.16,.58-40.94-19.94-36.08-2.58,.61-2.4-1.11,.05-1.48,20.1-4.44,38.69,27.73,20.24,38.23-3.89,2.21-8.81,1.56-12.04-.86-3.19-2.39-4.62-6.34-4.58-10.23,.25-3.77,1.92-7.45,4.71-9.86,9.95-8.58,23.83-5.63,30.98,1.86,9.98,10.46,8.42,24.82,2.44,34.4-7.04,11.3-23.74,19.44-44.16,11.33-3.57-1.42-6.96-2.9-10.19-4.26-16.77-7.26-28.54-12.3-44.41-8.24-16.89,4.31-25.33,15.45-32.83,27.66,.18-.98,.36-1.95,.51-2.93Z"/><path class="cls-2" d="M606.9,67.67c18.48,4.42,37.09-6.03,43.14-23.7,2.02-5.9,5.09-6.43,7.43-5.59-6.31,21.57-28.5,34.57-50.54,29.3-.01,0-.03,0-.04-.01Z"/></g></g></g></g></svg>